# File created by Blade
# Date/Time:  Tue Jan 27 19:23:16 2015
# Frame Rate: 120.000 fps
#------------------------------------------------------
:FULLY-SPECIFIED
:DEGREES
3968
root 1.117570 32.268900 -0.060349 -2.456949 -17.339661 -1.354321
Spine 3.906919 -15.937101 -6.422162
Head 13.049617 0.060088 6.462037
LeftShoulder -11.933810 3.863418 31.116782
LeftArm -9.113953 39.995318 -109.203622
LeftForeArm 4.884117 -0.000000 18.026680
LeftHand 9.516668 -0.000000 -4.388364
LeftHandThumb1 -26.253704 0.000000 33.147579
RightShoulder -30.933677 -22.093361 -39.307286
RightArm 127.581830 103.279588 180.874770
RightForeArm 24.598024 0.000000 117.703372
RightHand 22.203227 -0.000000 -15.405701
RightHandThumb1 -24.326973 -0.000000 -32.862282
LeftUpLeg 15.011032 20.343086 8.605258
LeftLeg -1.234239 -0.000000 0.000000
LeftFoot -16.357850 11.916564 -26.943390
LeftToeBase 17.203566 -0.000000 -0.000000
RightUpLeg 6.016109 6.018199 8.481184
RightLeg 2.186713 -0.000000 -0.000000
RightFoot -9.441940 -11.530669 10.542318
RightToeBase 14.044330 -0.000000 -0.000000
3969
root 1.117050 32.268602 -0.058513 -2.464680 -17.308824 -1.351785
Spine 3.909674 -15.913141 -6.416351
Head 13.043783 0.059546 6.477773
LeftShoulder -11.921027 3.850088 31.128100
LeftArm -9.112300 40.003195 -109.208501
LeftForeArm 4.883821 -0.000000 18.018728
LeftHand 9.497979 -0.000000 -4.382619
LeftHandThumb1 -26.253704 0.000000 33.147579
RightShoulder -30.923601 -22.093009 -39.287785
RightArm 127.768348 103.285080 181.073316
RightForeArm 24.455729 -0.000000 117.577458
RightHand 22.165407 0.000000 -15.437629
RightHandThumb1 -24.326973 -0.000000 -32.862282
LeftUpLeg 15.011010 20.342646 8.611697
LeftLeg -1.234690 -0.000000 0.000000
LeftFoot -16.346092 11.890080 -26.963899
LeftToeBase 17.284583 -0.000000 -0.000000
RightUpLeg 6.026109 6.011054 8.481082
RightLeg 2.190361 -0.000000 -0.000000
RightFoot -9.438551 -11.552363 10.524171
RightToeBase 13.957712 -0.000000 -0.000000
3970
root 1.117281 32.268423 -0.056500 -2.469060 -17.264244 -1.348332
Spine 3.909593 -15.924305 -6.403416
Head 13.043268 0.065357 6.472040
LeftShoulder -11.938259 3.848077 31.124405
LeftArm -9.108858 40.038139 -109.206037
LeftForeArm 4.891990 0.000000 18.015931
LeftHand 9.494346 0.000000 -4.390972
LeftHandThumb1 -26.253704 0.000000 33.147579
RightShoulder -30.909382 -22.078295 -39.281410
RightArm 127.924395 103.272427 181.231694
RightForeArm 24.285495 -0.000000 117.450894
RightHand 22.140226 -0.000000 -15.379699
RightHandThumb1 -24.326973 -0.000000 -32.862282
LeftUpLeg 15.005690 20.311475 8.605713
LeftLeg -1.237082 -0.000000 0.000000
LeftFoot -16.331623 11.883714 -26.949343
LeftToeBase 17.266629 -0.000000 -0.000000
RightUpLeg 6.035295 5.988441 8.476880
RightLeg 2.186127 -0.000000 -0.000000
RightFoot -9.463189 -11.561777 10.552134
RightToeBase 14.004937 -0.000000 -0.000000
3971
root 1.117385 32.268224 -0.054934 -2.472924 -17.225583 -1.343509
Spine 3.912313 -15.916557 -6.397118
Head 13.036868 0.081378 6.477414
LeftShoulder -11.948549 3.857239 31.127662
LeftArm -9.074630 40.043499 -109.195446
LeftForeArm 4.934385 -0.000000 18.005908
LeftHand 9.457397 0.000000 -4.401027
LeftHandThumb1 -26.253704 0.000000 33.147579
RightShoulder -30.908298 -22.079867 -39.243000
RightArm 128.147128 103.275179 181.434372
RightForeArm 24.167130 -0.000000 117.338375
RightHand 22.153636 -0.000000 -15.536342
RightHandThumb1 -24.326973 -0.000000 -32.862282
LeftUpLeg 14.996078 20.275750 8.594502
LeftLeg -1.225589 -0.000000 0.000000
LeftFoot -16.290552 11.883692 -26.834708
LeftToeBase 17.155931 -0.000000 -0.000000
RightUpLeg 6.037877 5.997065 8.475994
RightLeg 2.193635 -0.000000 -0.000000
RightFoot -9.484511 -11.603241 10.554114
RightToeBase 14.018238 -0.000000 -0.000000
3972
root 1.117089 32.268325 -0.052456 -2.475295 -17.191364 -1.334235
Spine 3.903871 -15.895037 -6.394082
Head 13.042158 0.067943 6.490777
LeftShoulder -11.944860 3.860325 31.135469
LeftArm -9.054031 40.047749 -109.193126
LeftForeArm 4.991003 -0.000000 17.994373
LeftHand 9.455368 -0.000000 -4.361166
LeftHandThumb1 -26.253704 0.000000 33.147579
RightShoulder -30.899955 -22.055159 -39.228335
RightArm 128.367785 103.326543 181.637884
RightForeArm 24.089295 -0.000000 117.224608
RightHand 22.159376 -0.000000 -15.600463
RightHandThumb1 -24.326973 -0.000000 -32.862282
LeftUpLeg 14.990822 20.283505 8.592718
LeftLeg -1.229849 -0.000000 0.000000
LeftFoot -16.300495 11.857320 -26.906943
LeftToeBase 17.212210 -0.000000 -0.000000
RightUpLeg 6.042525 5.973559 8.468095
RightLeg 2.193482 -0.000000 -0.000000
RightFoot -9.495187 -11.618392 10.547843
RightToeBase 13.993662 -0.000000 -0.000000
3973
root 1.117727 32.268095 -0.050814 -2.477560 -17.147597 -1.328272
Spine 3.900511 -15.893656 -6.384673
Head 13.052262 0.070428 6.497608
LeftShoulder -11.954065 3.878699 31.134593
LeftArm -9.015244 40.050335 -109.179539
LeftForeArm 5.040750 -0.000000 17.986604
LeftHand 9.484777 -0.000000 -4.353909
LeftHandThumb1 -26.253704 0.000000 33.147579
RightShoulder -30.895530 -22.045881 -39.204593
RightArm 128.623782 103.336064 181.865193
RightForeArm 24.016425 -0.000000 117.117259
RightHand 22.121223 -0.000000 -15.722605
RightHandThumb1 -24.326973 -0.000000 -32.862282
LeftUpLeg 14.979616 20.242197 8.579407
LeftLeg -1.229705 -0.000000 0.000000
LeftFoot -16.304813 11.859288 -26.916930
LeftToeBase 17.179146 -0.000000 -0.000000
RightUpLeg 6.046804 5.962725 8.463402
RightLeg 2.193541 -0.000000 -0.000000
RightFoot -9.507507 -11.643966 10.560597
RightToeBase 13.957451 -0.000000 -0.000000
3974
root 1.118163 32.267763 -0.049294 -2.481365 -17.114620 -1.325414
Spine 3.904022 -15.880375 -6.373661
Head 13.045123 0.071455 6.505524
LeftShoulder -11.953024 3.877059 31.137653
LeftArm -9.012212 40.039301 -109.179303
LeftForeArm 5.028786 -0.000000 18.014920
LeftHand 9.587135 0.000000 -4.632421
LeftHandThumb1 -26.253704 0.000000 33.147579
RightShoulder -30.893432 -22.045074 -39.164154
RightArm 128.795540 103.313647 181.999560
RightForeArm 23.942508 -0.000000 116.995675
RightHand 22.120608 -0.000000 -15.679273
RightHandThumb1 -24.326973 -0.000000 -32.862282
LeftUpLeg 14.967619 20.221669 8.573024
LeftLeg -1.204865 -0.000000 0.000000
LeftFoot -16.333787 11.839319 -26.913718
LeftToeBase 17.228593 -0.000000 -0.000000
RightUpLeg 6.047885 5.944320 8.460241
RightLeg 2.204963 -0.000000 -0.000000
RightFoot -9.523355 -11.653222 10.562289
RightToeBase 13.901179 -0.000000 -0.000000
3975
root 1.118292 32.267404 -0.047651 -2.483599 -17.084357 -1.323429
Spine 3.902680 -15.862553 -6.360506
Head 13.050151 0.078505 6.515912
LeftShoulder -11.955046 3.884532 31.140588
LeftArm -8.994162 40.022102 -109.175176
LeftForeArm 5.032564 -0.000000 18.028960
LeftHand 9.567865 0.000000 -4.638617
LeftHandThumb1 -26.253704 0.000000 33.147579
RightShoulder -30.884303 -22.029379 -39.138708
RightArm 128.960648 103.321066 182.119895
RightForeArm 23.887613 0.000000 116.850163
RightHand 22.157528 0.000000 -15.650799
RightHandThumb1 -24.326973 -0.000000 -32.862282
LeftUpLeg 14.960645 20.213352 8.573861
LeftLeg -1.204895 -0.000000 0.000000
LeftFoot -16.322605 11.817097 -26.921273
LeftToeBase 17.274584 -0.000000 -0.000000
RightUpLeg 6.054995 5.934888 8.458507
RightLeg 2.201652 -0.000000 -0.000000
RightFoot -9.538559 -11.662990 10.575077
RightToeBase 13.902045 -0.000000 -0.000000
3976
root 1.119105 32.267199 -0.046002 -2.488394 -17.049718 -1.320510
Spine 3.903252 -15.849830 -6.347251
Head 13.055467 0.072947 6.518829
LeftShoulder -11.953322 3.871361 31.141776
LeftArm -9.003288 40.017988 -109.185400
LeftForeArm 5.032295 -0.000000 18.050140
LeftHand 9.544069 0.000000 -4.611593
LeftHandThumb1 -26.253704 0.000000 33.147579
RightShoulder -30.879631 -22.009751 -39.110245
RightArm 129.248365 103.337470 182.341932
RightForeArm 23.871011 0.000000 116.713729
RightHand 22.199990 0.000000 -15.542697
RightHandThumb1 -24.326973 -0.000000 -32.862282
LeftUpLeg 14.953514 20.174585 8.565645
LeftLeg -1.199484 -0.000000 0.000000
LeftFoot -16.319623 11.823788 -26.910734
LeftToeBase 17.267749 -0.000000 -0.000000
RightUpLeg 6.061191 5.914415 8.454414
RightLeg 2.202869 -0.000000 -0.000000
RightFoot -9.556227 -11.682413 10.571775
RightToeBase 13.959820 -0.000000 -0.000000
3977
root 1.120290 32.266884 -0.043848 -2.493604 -17.024645 -1.316011
Spine 3.902413 -15.832116 -6.330829
Head 13.060688 0.080329 6.521154
LeftShoulder -11.959050 3.880155 31.128954
LeftArm -8.996511 40.003252 -109.174519
LeftForeArm 5.033070 0.000000 18.087010
LeftHand 9.552325 0.000000 -4.592949
LeftHandThumb1 -26.253704 0.000000 33.147579
RightShoulder -30.860628 -21.983682 -39.090250
RightArm 129.658259 103.400121 182.666976
RightForeArm 23.876830 0.000000 116.585086
RightHand 22.289235 0.000000 -15.628894
RightHandThumb1 -24.326973 -0.000000 -32.862282
LeftUpLeg 14.946842 20.146001 8.555742
LeftLeg -1.186386 -0.000000 0.000000
LeftFoot -16.329832 11.821786 -26.901468
LeftToeBase 17.258327 -0.000000 -0.000000
RightUpLeg 6.071626 5.879753 8.444834
RightLeg 2.197179 -0.000000 -0.000000
RightFoot -9.550245 -11.668767 10.554044
RightToeBase 13.892006 -0.000000 -0.000000
3978
root 1.120197 32.266244 -0.042331 -2.500050 -17.005543 -1.315160
Spine 3.906297 -15.810152 -6.317653
Head 13.062238 0.087266 6.529571
LeftShoulder -11.969611 3.869286 31.135122
LeftArm -9.006720 40.006610 -109.191961
LeftForeArm 5.058113 -0.000000 18.098606
LeftHand 9.462086 -0.000000 -4.267952
LeftHandThumb1 -26.253704 0.000000 33.147579
RightShoulder -30.852333 -21.999363 -39.061089
RightArm 130.087934 103.408972 183.024602
RightForeArm 23.691866 -0.000000 116.429563
RightHand 22.315826 0.000000 -15.314309
RightHandThumb1 -24.326973 -0.000000 -32.862282
LeftUpLeg 14.948099 20.102981 8.547017
LeftLeg -1.177644 -0.000000 0.000000
LeftFoot -16.298886 11.841968 -26.820587
LeftToeBase 17.050308 -0.000000 -0.000000
RightUpLeg 6.079896 5.876925 8.447182
RightLeg 2.198756 -0.000000 -0.000000
RightFoot -9.569115 -11.684569 10.576926
RightToeBase 13.901587 -0.000000 -0.000000
3979
root 1.121142 32.265719 -0.040369 -2.503858 -16.988688 -1.312040
Spine 3.902423 -15.786299 -6.301072
Head 13.068473 0.093412 6.534605
LeftShoulder -11.988503 3.873910 31.129040
LeftArm -8.997415 39.996926 -109.188238
LeftForeArm 5.068420 -0.000000 18.114455
LeftHand 9.442916 -0.000000 -4.237033
LeftHandThumb1 -26.253704 0.000000 33.147579
RightShoulder -30.830063 -21.987267 -39.047380
RightArm 130.653017 103.519011 183.487250
RightForeArm 23.513528 0.000000 116.286072
RightHand 22.273251 -0.000000 -15.323983
RightHandThumb1 -24.326973 -0.000000 -32.862282
LeftUpLeg 14.943860 20.083310 8.541885
LeftLeg -1.164137 -0.000000 0.000000
LeftFoot -16.373179 11.818635 -26.949139
LeftToeBase 17.190716 -0.000000 -0.000000
RightUpLeg 6.088383 5.867379 8.441719
RightLeg 2.194758 -0.000000 -0.000000
RightFoot -9.579596 -11.691518 10.584506
RightToeBase 13.950704 -0.000000 -0.000000
